<svg width="136" height="21" viewBox="0 0 136 21" fill="none" xmlns="http://www.w3.org/2000/svg">
<rect y="8.81799" width="2" height="2" rx="1" fill="#FFD027"/>
<rect x="3" y="7.81799" width="4" height="4" rx="2" fill="#FFD027"/>
<rect x="8" y="6.81799" width="6" height="6" rx="3" fill="#FFD027"/>
<rect x="136" y="10.818" width="2" height="2" rx="1" transform="rotate(-180 136 10.818)" fill="#FFD027"/>
<rect x="133" y="11.818" width="4" height="4" rx="2" transform="rotate(-180 133 11.818)" fill="#FFD027"/>
<rect x="128" y="12.818" width="6" height="6" rx="3" transform="rotate(-180 128 12.818)" fill="#FFD027"/>
<path d="M18.562 4.268H23.776C24.128 4.268 24.4213 4.38533 24.656 4.62C24.8907 4.85467 25.008 5.148 25.008 5.5C25.008 5.83733 24.8907 6.12333 24.656 6.358C24.4213 6.578 24.128 6.688 23.776 6.688H18.562C18.21 6.688 17.9167 6.57067 17.682 6.336C17.4473 6.10133 17.33 5.808 17.33 5.456C17.33 5.11867 17.4473 4.84 17.682 4.62C17.9167 4.38533 18.21 4.268 18.562 4.268ZM20.916 1.518C21.2973 1.518 21.6053 1.65 21.84 1.914C22.0893 2.16333 22.214 2.47867 22.214 2.86V12.65C22.214 12.8553 22.2507 13.024 22.324 13.156C22.412 13.288 22.522 13.3833 22.654 13.442C22.8007 13.5007 22.9547 13.53 23.116 13.53C23.292 13.53 23.4533 13.5007 23.6 13.442C23.7467 13.3687 23.9153 13.332 24.106 13.332C24.3113 13.332 24.4947 13.4273 24.656 13.618C24.832 13.8087 24.92 14.0727 24.92 14.41C24.92 14.8207 24.6927 15.158 24.238 15.422C23.798 15.686 23.3213 15.818 22.808 15.818C22.5 15.818 22.1553 15.796 21.774 15.752C21.4073 15.6933 21.0553 15.5687 20.718 15.378C20.3953 15.1727 20.124 14.8647 19.904 14.454C19.684 14.0433 19.574 13.4787 19.574 12.76V2.86C19.574 2.47867 19.6987 2.16333 19.948 1.914C20.212 1.65 20.5347 1.518 20.916 1.518Z" fill="#FFD027"/>
<path d="M29.918 14.476C29.918 14.8573 29.7933 15.18 29.544 15.444C29.2946 15.6933 28.9793 15.818 28.598 15.818C28.2166 15.818 27.9013 15.6933 27.652 15.444C27.4026 15.18 27.278 14.8573 27.278 14.476V5.39C27.278 5.00867 27.4026 4.69333 27.652 4.444C27.9013 4.18 28.2166 4.048 28.598 4.048C28.9793 4.048 29.2946 4.18 29.544 4.444C29.7933 4.69333 29.918 5.00867 29.918 5.39V14.476ZM28.576 2.618C28.0773 2.618 27.7253 2.53733 27.52 2.376C27.3146 2.21467 27.212 1.92867 27.212 1.518V1.1C27.212 0.674667 27.322 0.388667 27.542 0.242001C27.7766 0.0806669 28.1286 0 28.598 0C29.1113 0 29.4706 0.0806669 29.676 0.242001C29.8813 0.403334 29.984 0.689334 29.984 1.1V1.518C29.984 1.94333 29.874 2.23667 29.654 2.398C29.434 2.54467 29.0746 2.618 28.576 2.618Z" fill="#FFD027"/>
<path d="M38.9232 3.828C40.0085 3.828 40.8298 4.05533 41.3872 4.51C41.9592 4.96467 42.3478 5.57333 42.5532 6.336C42.7732 7.084 42.8832 7.92 42.8832 8.844V14.476C42.8832 14.8573 42.7585 15.18 42.5092 15.444C42.2598 15.6933 41.9445 15.818 41.5632 15.818C41.1818 15.818 40.8665 15.6933 40.6172 15.444C40.3678 15.18 40.2432 14.8573 40.2432 14.476V8.844C40.2432 8.36 40.1772 7.92733 40.0452 7.546C39.9278 7.15 39.7078 6.83467 39.3852 6.6C39.0625 6.36533 38.6005 6.248 37.9992 6.248C37.4125 6.248 36.9138 6.36533 36.5032 6.6C36.1072 6.83467 35.7992 7.15 35.5792 7.546C35.3738 7.92733 35.2712 8.36 35.2712 8.844V14.476C35.2712 14.8573 35.1465 15.18 34.8972 15.444C34.6478 15.6933 34.3325 15.818 33.9512 15.818C33.5698 15.818 33.2545 15.6933 33.0052 15.444C32.7558 15.18 32.6312 14.8573 32.6312 14.476V5.39C32.6312 5.00867 32.7558 4.69333 33.0052 4.444C33.2545 4.18 33.5698 4.048 33.9512 4.048C34.3325 4.048 34.6478 4.18 34.8972 4.444C35.1465 4.69333 35.2712 5.00867 35.2712 5.39V6.336L34.9412 6.27C35.0732 6.02067 35.2638 5.75667 35.5132 5.478C35.7625 5.18467 36.0558 4.91333 36.3932 4.664C36.7305 4.41467 37.1118 4.21667 37.5372 4.07C37.9625 3.90867 38.4245 3.828 38.9232 3.828Z" fill="#FFD027"/>
<path d="M54.3632 4.048C54.7446 4.048 55.0599 4.18 55.3092 4.444C55.5586 4.69333 55.6832 5.00867 55.6832 5.39V14.74C55.6832 16.0893 55.4266 17.16 54.9132 17.952C54.4146 18.7587 53.7399 19.338 52.8892 19.69C52.0386 20.042 51.0852 20.218 50.0292 20.218C49.5599 20.218 49.0612 20.1813 48.5332 20.108C48.0052 20.0347 47.5726 19.9247 47.2352 19.778C46.7952 19.5873 46.4872 19.3453 46.3112 19.052C46.1499 18.7733 46.1206 18.4727 46.2232 18.15C46.3552 17.7247 46.5679 17.4313 46.8612 17.27C47.1546 17.1233 47.4626 17.1087 47.7852 17.226C48.0199 17.2993 48.3279 17.4093 48.7092 17.556C49.0906 17.7173 49.5306 17.798 50.0292 17.798C50.7039 17.798 51.2612 17.7027 51.7012 17.512C52.1559 17.336 52.4932 17.028 52.7132 16.588C52.9479 16.1627 53.0652 15.576 53.0652 14.828V13.354L53.5272 13.882C53.2779 14.366 52.9626 14.7693 52.5812 15.092C52.2146 15.4 51.7746 15.6347 51.2612 15.796C50.7479 15.9573 50.1612 16.038 49.5012 16.038C48.7239 16.038 48.0419 15.862 47.4552 15.51C46.8832 15.1433 46.4359 14.6447 46.1132 14.014C45.7906 13.3687 45.6292 12.6353 45.6292 11.814V5.39C45.6292 5.00867 45.7539 4.69333 46.0032 4.444C46.2526 4.18 46.5679 4.048 46.9492 4.048C47.3306 4.048 47.6459 4.18 47.8952 4.444C48.1446 4.69333 48.2692 5.00867 48.2692 5.39V11.022C48.2692 11.9753 48.4746 12.65 48.8852 13.046C49.3106 13.4273 49.8972 13.618 50.6452 13.618C51.1586 13.618 51.5912 13.5227 51.9432 13.332C52.2952 13.1267 52.5666 12.8333 52.7572 12.452C52.9479 12.056 53.0432 11.5793 53.0432 11.022V5.39C53.0432 5.00867 53.1679 4.69333 53.4172 4.444C53.6666 4.18 53.9819 4.048 54.3632 4.048Z" fill="#FFD027"/>
<path d="M65.6473 0.41803C67.0553 0.41803 68.104 0.74803 68.7933 1.40803C69.4827 2.06803 69.8273 3.04336 69.8273 4.33403C69.8273 5.02336 69.6587 5.63203 69.3213 6.16003C68.984 6.67336 68.4853 7.0767 67.8253 7.37003C67.1653 7.6487 66.3513 7.78803 65.3833 7.78803L65.4713 6.79803C65.926 6.79803 66.4467 6.86403 67.0333 6.99603C67.62 7.11336 68.1847 7.33336 68.7273 7.65603C69.2847 7.96403 69.7393 8.40403 70.0913 8.97603C70.458 9.53336 70.6413 10.252 70.6413 11.132C70.6413 12.1 70.48 12.892 70.1573 13.508C69.8493 14.124 69.4387 14.6007 68.9253 14.938C68.412 15.2754 67.862 15.51 67.2753 15.642C66.6887 15.7594 66.124 15.818 65.5813 15.818H60.1033C59.722 15.818 59.3993 15.6934 59.1353 15.444C58.886 15.18 58.7613 14.8574 58.7613 14.476V1.76003C58.7613 1.3787 58.886 1.06336 59.1353 0.81403C59.3993 0.55003 59.722 0.41803 60.1033 0.41803H65.6473ZM65.2513 3.01403H61.3353L61.6213 2.66203V6.64403L61.3573 6.44603H65.3173C65.7427 6.44603 66.124 6.3067 66.4613 6.02803C66.7987 5.74936 66.9673 5.34603 66.9673 4.81803C66.9673 4.18736 66.806 3.7327 66.4833 3.45403C66.1753 3.1607 65.7647 3.01403 65.2513 3.01403ZM65.4273 9.04203H61.4233L61.6213 8.86603V11.187V13.508L61.4013 13.288H65.5813C66.256 13.288 66.7913 13.112 67.1873 12.76C67.5833 12.3934 67.7813 11.8507 67.7813 11.132C67.7813 10.472 67.6493 9.99536 67.3853 9.70203C67.1213 9.4087 66.806 9.22536 66.4393 9.15203C66.0727 9.0787 65.7353 9.04203 65.4273 9.04203Z" fill="white"/>
<path d="M78.4799 16.038C77.2332 16.038 76.1479 15.7814 75.2239 15.268C74.3145 14.74 73.6105 14.0287 73.1119 13.134C72.6279 12.2394 72.3859 11.2274 72.3859 10.098C72.3859 8.77803 72.6499 7.65603 73.1779 6.73203C73.7205 5.79336 74.4245 5.0747 75.2899 4.57603C76.1552 4.07736 77.0719 3.82803 78.0399 3.82803C78.7879 3.82803 79.4919 3.98203 80.1519 4.29003C80.8265 4.59803 81.4205 5.02336 81.9339 5.56603C82.4472 6.09403 82.8505 6.71003 83.1439 7.41403C83.4519 8.11803 83.6059 8.86603 83.6059 9.65803C83.5912 10.01 83.4519 10.296 83.1879 10.516C82.9239 10.736 82.6159 10.846 82.2639 10.846H73.8599L73.1999 8.64603H81.2739L80.7899 9.08603V8.49203C80.7605 8.0667 80.6065 7.68536 80.3279 7.34803C80.0639 7.0107 79.7265 6.7467 79.3159 6.55603C78.9199 6.3507 78.4945 6.24803 78.0399 6.24803C77.5999 6.24803 77.1892 6.3067 76.8079 6.42403C76.4265 6.54136 76.0965 6.73936 75.8179 7.01803C75.5392 7.2967 75.3192 7.6707 75.1579 8.14003C74.9965 8.60936 74.9159 9.20336 74.9159 9.92203C74.9159 10.714 75.0772 11.3887 75.3999 11.946C75.7372 12.4887 76.1625 12.9067 76.6759 13.2C77.2039 13.4787 77.7612 13.618 78.3479 13.618C78.8905 13.618 79.3232 13.574 79.6459 13.486C79.9685 13.398 80.2252 13.2954 80.4159 13.178C80.6212 13.046 80.8045 12.936 80.9659 12.848C81.2299 12.716 81.4792 12.65 81.7139 12.65C82.0365 12.65 82.3005 12.76 82.5059 12.98C82.7259 13.2 82.8359 13.4567 82.8359 13.75C82.8359 14.146 82.6305 14.5054 82.2199 14.828C81.8385 15.1507 81.3032 15.4367 80.6139 15.686C79.9245 15.9207 79.2132 16.038 78.4799 16.038Z" fill="white"/>
<path d="M95.6344 3.82803C96.0157 3.82803 96.331 3.9527 96.5804 4.20203C96.8297 4.45136 96.9544 4.77403 96.9544 5.17003V14.476C96.9544 14.8574 96.8297 15.18 96.5804 15.444C96.331 15.6934 96.0157 15.818 95.6344 15.818C95.253 15.818 94.9377 15.6934 94.6884 15.444C94.439 15.18 94.3144 14.8574 94.3144 14.476V13.398L94.7984 13.596C94.7984 13.7867 94.6957 14.0214 94.4904 14.3C94.285 14.564 94.0064 14.828 93.6544 15.092C93.3024 15.356 92.8844 15.5834 92.4004 15.774C91.931 15.95 91.4177 16.038 90.8604 16.038C89.8484 16.038 88.9317 15.7814 88.1104 15.268C87.289 14.74 86.6364 14.0214 86.1524 13.112C85.683 12.188 85.4484 11.132 85.4484 9.94403C85.4484 8.74136 85.683 7.68536 86.1524 6.77603C86.6364 5.85203 87.2817 5.13336 88.0884 4.62003C88.895 4.09203 89.7897 3.82803 90.7724 3.82803C91.403 3.82803 91.9824 3.92336 92.5104 4.11403C93.0384 4.3047 93.493 4.5467 93.8744 4.84003C94.2704 5.13336 94.571 5.43403 94.7764 5.74203C94.9964 6.03536 95.1064 6.2847 95.1064 6.49003L94.3144 6.77603V5.17003C94.3144 4.7887 94.439 4.47336 94.6884 4.22403C94.9377 3.96003 95.253 3.82803 95.6344 3.82803ZM91.1904 13.618C91.8357 13.618 92.4004 13.4567 92.8844 13.134C93.3684 12.8114 93.7424 12.3714 94.0064 11.814C94.285 11.2567 94.4244 10.6334 94.4244 9.94403C94.4244 9.24003 94.285 8.60936 94.0064 8.05203C93.7424 7.4947 93.3684 7.0547 92.8844 6.73203C92.4004 6.40936 91.8357 6.24803 91.1904 6.24803C90.5597 6.24803 90.0024 6.40936 89.5184 6.73203C89.0344 7.0547 88.653 7.4947 88.3744 8.05203C88.1104 8.60936 87.9784 9.24003 87.9784 9.94403C87.9784 10.6334 88.1104 11.2567 88.3744 11.814C88.653 12.3714 89.0344 12.8114 89.5184 13.134C90.0024 13.4567 90.5597 13.618 91.1904 13.618Z" fill="white"/>
<path d="M99.9448 4.26803H105.159C105.511 4.26803 105.804 4.38536 106.039 4.62003C106.273 4.8547 106.391 5.14803 106.391 5.50003C106.391 5.83736 106.273 6.12336 106.039 6.35803C105.804 6.57803 105.511 6.68803 105.159 6.68803H99.9448C99.5928 6.68803 99.2995 6.5707 99.0648 6.33603C98.8301 6.10136 98.7128 5.80803 98.7128 5.45603C98.7128 5.1187 98.8301 4.84003 99.0648 4.62003C99.2995 4.38536 99.5928 4.26803 99.9448 4.26803ZM102.299 1.51803C102.68 1.51803 102.988 1.65003 103.223 1.91403C103.472 2.16336 103.597 2.4787 103.597 2.86003V12.65C103.597 12.8554 103.633 13.024 103.707 13.156C103.795 13.288 103.905 13.3834 104.037 13.442C104.183 13.5007 104.337 13.53 104.499 13.53C104.675 13.53 104.836 13.5007 104.983 13.442C105.129 13.3687 105.298 13.332 105.489 13.332C105.694 13.332 105.877 13.4274 106.039 13.618C106.215 13.8087 106.303 14.0727 106.303 14.41C106.303 14.8207 106.075 15.158 105.621 15.422C105.181 15.686 104.704 15.818 104.191 15.818C103.883 15.818 103.538 15.796 103.157 15.752C102.79 15.6934 102.438 15.5687 102.101 15.378C101.778 15.1727 101.507 14.8647 101.287 14.454C101.067 14.0434 100.957 13.4787 100.957 12.76V2.86003C100.957 2.4787 101.081 2.16336 101.331 1.91403C101.595 1.65003 101.917 1.51803 102.299 1.51803Z" fill="white"/>
<path d="M108.562 13.992C108.416 13.7867 108.35 13.5227 108.364 13.2C108.379 12.8774 108.57 12.5987 108.936 12.364C109.171 12.2174 109.42 12.1587 109.684 12.188C109.948 12.2027 110.205 12.3347 110.454 12.584C110.88 13.0094 111.327 13.3394 111.796 13.574C112.266 13.8087 112.852 13.926 113.556 13.926C113.776 13.9114 114.018 13.882 114.282 13.838C114.546 13.7794 114.774 13.662 114.964 13.486C115.17 13.2954 115.272 13.0094 115.272 12.628C115.272 12.3054 115.162 12.0487 114.942 11.858C114.722 11.6674 114.429 11.506 114.062 11.374C113.71 11.242 113.314 11.1174 112.874 11C112.42 10.868 111.95 10.7214 111.466 10.56C110.997 10.3987 110.564 10.1934 110.168 9.94403C109.772 9.68003 109.45 9.33536 109.2 8.91003C108.951 8.4847 108.826 7.94936 108.826 7.30403C108.826 6.5707 109.032 5.94736 109.442 5.43403C109.853 4.9207 110.381 4.5247 111.026 4.24603C111.686 3.96736 112.376 3.82803 113.094 3.82803C113.549 3.82803 114.026 3.8867 114.524 4.00403C115.023 4.1067 115.5 4.2827 115.954 4.53203C116.409 4.7667 116.79 5.08203 117.098 5.47803C117.26 5.69803 117.355 5.96203 117.384 6.27003C117.414 6.57803 117.274 6.8567 116.966 7.10603C116.746 7.28203 116.49 7.3627 116.196 7.34803C115.903 7.3187 115.661 7.21603 115.47 7.04003C115.221 6.71736 114.884 6.4607 114.458 6.27003C114.048 6.07936 113.571 5.98403 113.028 5.98403C112.808 5.98403 112.566 6.01336 112.302 6.07203C112.053 6.11603 111.833 6.22603 111.642 6.40203C111.452 6.56336 111.356 6.82736 111.356 7.19403C111.356 7.53136 111.466 7.8027 111.686 8.00803C111.906 8.1987 112.2 8.36003 112.566 8.49203C112.948 8.60936 113.351 8.7267 113.776 8.84403C114.216 8.96136 114.664 9.1007 115.118 9.26203C115.573 9.42336 115.991 9.63603 116.372 9.90003C116.754 10.164 117.062 10.5087 117.296 10.934C117.531 11.3447 117.648 11.8727 117.648 12.518C117.648 13.266 117.428 13.904 116.988 14.432C116.548 14.96 115.998 15.3634 115.338 15.642C114.678 15.906 114.004 16.038 113.314 16.038C112.449 16.038 111.584 15.8914 110.718 15.598C109.853 15.29 109.134 14.7547 108.562 13.992Z" fill="white"/>
</svg>
